<svg xmlns="http://www.w3.org/2000/svg" width="151.926" height="132.936" viewBox="0 0 151.926 132.936">
  <path id="lizard" d="M-42.616,0A18.716,18.716,0,0,1-34.01,2.077,18.884,18.884,0,0,1-27.26,7.789L15.173,65.726a43.566,43.566,0,0,1,8.754,26.632v26.335a13.736,13.736,0,0,1-4.154,10.089,13.736,13.736,0,0,1-10.089,4.154H-18.8a13.735,13.735,0,0,1-10.089-4.154,13.735,13.735,0,0,1-4.154-10.089v-13.13L-54.262,94.954h-40.5A13.736,13.736,0,0,1-104.855,90.8a13.736,13.736,0,0,1-4.154-10.089V78.337a20.578,20.578,0,0,1,6.268-15.1,20.578,20.578,0,0,1,15.1-6.268h31.157l3.116-9.5h-50.889a18.4,18.4,0,0,1-12.871-5.007,18.212,18.212,0,0,1-6.046-12.351A20.637,20.637,0,0,1-128,16.617V14.243a13.736,13.736,0,0,1,4.154-10.089A13.736,13.736,0,0,1-113.757,0ZM14.431,118.692V92.358a34.8,34.8,0,0,0-6.9-21.068L-34.975,13.353A9.1,9.1,0,0,0-42.616,9.5h-71.141A4.563,4.563,0,0,0-117.1,10.9a4.563,4.563,0,0,0-1.409,3.338q0,2.374.111,3.672a12.617,12.617,0,0,0,.7,3,9.962,9.962,0,0,0,1.855,3.19A7.3,7.3,0,0,1-113.2,20.4a6.852,6.852,0,0,1,4.191-1.409h61.72v2.374h-61.72a4.563,4.563,0,0,0-3.338,1.409,4.563,4.563,0,0,0-1.409,3.338,25.759,25.759,0,0,0,.223,4.3,8.788,8.788,0,0,0,3.264,5.415,9.331,9.331,0,0,0,6.009,2.151h54.228a6.868,6.868,0,0,1,5.044,2.077A6.868,6.868,0,0,1-42.912,45.1a7,7,0,0,1-.371,2.225l-4.748,14.243a7.224,7.224,0,0,1-2.6,3.524,6.814,6.814,0,0,1-4.154,1.372H-87.645a11.429,11.429,0,0,0-8.383,3.487,11.429,11.429,0,0,0-3.487,8.383v2.374A4.563,4.563,0,0,0-98.1,84.049a4.563,4.563,0,0,0,3.338,1.409H-53.15A4.464,4.464,0,0,1-51,85.978L-27.482,97.7a7.6,7.6,0,0,1,2.856,2.671,6.823,6.823,0,0,1,1.076,3.709v14.614a4.563,4.563,0,0,0,1.409,3.338A4.563,4.563,0,0,0-18.8,123.44H9.683a4.563,4.563,0,0,0,3.338-1.409A4.563,4.563,0,0,0,14.431,118.692Z" transform="translate(128)" fill="#25272e"/>
</svg>
