<svg xmlns="http://www.w3.org/2000/svg" width="156.656" height="172.014" viewBox="0 0 156.656 172.014">
  <path id="paper" d="M84.471,12.287a10.346,10.346,0,0,0-7.583,3.168,10.346,10.346,0,0,0-3.168,7.583v62.97H70.649V35.324a10.724,10.724,0,0,0-18.334-7.583,10.346,10.346,0,0,0-3.168,7.583v75.256L34.364,90.9a11.591,11.591,0,0,0-9.791-4.9,11.838,11.838,0,0,0-8.687,3.6,12.242,12.242,0,0,0-1.1,16.078l36.86,49.147a11.591,11.591,0,0,0,9.791,4.9h66.041a9.394,9.394,0,0,0,9.119-7.487l7.3-38.876a36.881,36.881,0,0,0,.48-5.663V59.9a10.751,10.751,0,0,0-21.5,0V86.007H119.8V35.324a10.751,10.751,0,0,0-21.5,0V86.007H95.222V23.038a10.346,10.346,0,0,0-3.168-7.583A10.346,10.346,0,0,0,84.471,12.287ZM84.471,0A22.5,22.5,0,0,1,96.518,3.408a22.822,22.822,0,0,1,8.5,9.263,19.606,19.606,0,0,1,4.032-.384,22.184,22.184,0,0,1,16.27,6.767,22.184,22.184,0,0,1,6.767,16.27v1.632A22.578,22.578,0,0,1,149.409,43.1a21.955,21.955,0,0,1,7.247,16.8v47.8a43.549,43.549,0,0,1-.768,7.967l-7.3,38.78a20.568,20.568,0,0,1-7.343,12.575,20.921,20.921,0,0,1-13.775,4.991H61.434a24.084,24.084,0,0,1-10.991-2.64,24.916,24.916,0,0,1-8.687-7.151L4.9,113.076A24.007,24.007,0,0,1,0,98.294,23.675,23.675,0,0,1,7.2,80.92a23.675,23.675,0,0,1,17.374-7.2q7.487,0,12.287,3.264V35.324a22.184,22.184,0,0,1,6.767-16.27A22.184,22.184,0,0,1,59.9,12.287a19.605,19.605,0,0,1,4.032.384,22.822,22.822,0,0,1,8.5-9.263A22.5,22.5,0,0,1,84.471,0Z" fill="#25272e"/>
</svg>
