<svg xmlns="http://www.w3.org/2000/svg" width="165.121" height="151.361" viewBox="0 0 165.121 151.361">
  <path id="rock" d="M210.561,269.76a13.764,13.764,0,0,0-13.76,13.76v13.76h-3.44v-10a12.215,12.215,0,0,0-3.44-8.761,11.4,11.4,0,0,0-8.6-3.6,12.113,12.113,0,0,0-12.04,12.04v46.118l-3.44-3.225v-18.49a12.215,12.215,0,0,0-3.44-8.761,11.4,11.4,0,0,0-8.6-3.6,12.113,12.113,0,0,0-12.04,12.04v24.08a12.072,12.072,0,0,0,3.763,8.815l33.325,31.82a14.829,14.829,0,0,1,4.193,10.965,6.976,6.976,0,0,0,6.88,6.88h68.8a6.976,6.976,0,0,0,6.88-6.88v-2.688a30.812,30.812,0,0,1,1.075-8.278l11.61-46.87a30.81,30.81,0,0,0,1.075-8.278V294.163a12.215,12.215,0,0,0-3.44-8.761,11.4,11.4,0,0,0-8.6-3.6,12.113,12.113,0,0,0-12.04,12.04v3.44h-3.44V283.843a12.472,12.472,0,0,0-2.687-7.794,11.316,11.316,0,0,0-6.88-4.354,18.165,18.165,0,0,0-2.473-.215,12.113,12.113,0,0,0-12.04,12.04v13.76h-3.44V284.165a14.465,14.465,0,0,0-3.494-9.621,12.878,12.878,0,0,0-8.869-4.676A7.371,7.371,0,0,0,210.561,269.76Zm0-13.76a25.558,25.558,0,0,1,16.018,5.375,25.713,25.713,0,0,1,34.4,7.418,25.234,25.234,0,0,1,6.343-.753,24.619,24.619,0,0,1,18.275,7.686,25.418,25.418,0,0,1,7.525,18.436v26.445a52.281,52.281,0,0,1-1.4,11.61l-11.718,46.87a33.733,33.733,0,0,0-.645,7.633,20.554,20.554,0,0,1-20.64,20.64h-68.8a19.294,19.294,0,0,1-14.835-6.289,21.762,21.762,0,0,1-5.805-15.319l-33.11-31.82A25.167,25.167,0,0,1,128,335.12V311.04a25.876,25.876,0,0,1,25.8-25.8,9.739,9.739,0,0,1,1.72.108,25.827,25.827,0,0,1,36.335-21.93A26.053,26.053,0,0,1,210.561,256Z" transform="translate(-128 -256)" fill="#25272e"/>
</svg>
