<svg xmlns="http://www.w3.org/2000/svg" width="188.368" height="161.458" viewBox="0 0 188.368 161.458">
  <path id="scissors" d="M112.789,289.458H94.184q-17.134,0-23.756-14.821a24.95,24.95,0,0,1-2.418-10.722v-.526a25.2,25.2,0,0,1-14.191-22.705q0-3.994.526-5.046H26.91a25.926,25.926,0,0,1-19.026-7.884,26.9,26.9,0,0,1,0-38.052,25.926,25.926,0,0,1,19.026-7.884H38.788l-4.625-1.787A26.885,26.885,0,0,1,16.819,154.91,25.926,25.926,0,0,1,24.7,135.884,25.926,25.926,0,0,1,43.728,128a26.879,26.879,0,0,1,9.566,1.787l66.013,25.123h42.151a26.917,26.917,0,0,1,26.91,26.91v70.217a26.276,26.276,0,0,1-5.676,16.556,25.9,25.9,0,0,1-14.716,9.513l-35.634,8.935A80.318,80.318,0,0,1,112.789,289.458Zm-5.151-74.737-16.293,7.463-17.134,7.779a11.954,11.954,0,0,0-5.046,4.362,11.783,11.783,0,0,0,9.881,18.132,10.673,10.673,0,0,0,4.835-1.051l35.529-16.188a14.051,14.051,0,0,1-8.462-5.256,14.9,14.9,0,0,1-3.311-9.46Zm33.637,32.691A11.844,11.844,0,0,0,129.5,235.639a10.673,10.673,0,0,0-4.835,1.051L94.184,250.565q-2.943,1.367-3.889,1.787a34.379,34.379,0,0,0-3.206,1.787,11.371,11.371,0,0,0-3.1,2.47,14.8,14.8,0,0,0-1.682,3.048,10.612,10.612,0,0,0-.841,4.257,11.77,11.77,0,0,0,3.311,8.62,11.5,11.5,0,0,0,8.567,3.364,8.816,8.816,0,0,0,3.994-.946l37-16.819a11.954,11.954,0,0,0,5.046-4.362A11.373,11.373,0,0,0,141.276,247.412Zm-24.387-79.047L48.564,142.3a15.278,15.278,0,0,0-4.835-.841A13.458,13.458,0,0,0,30.273,154.91a13.325,13.325,0,0,0,2.365,7.673,12.958,12.958,0,0,0,6.254,4.94l55.291,21.023v6.727H26.91a12.963,12.963,0,0,0-9.513,3.942,13.45,13.45,0,0,0,0,19.026,12.963,12.963,0,0,0,9.513,3.942H83.147l24.492-11.142V190.229a14.649,14.649,0,0,1,4.835-11.142l11.668-10.722ZM112.789,276a64.465,64.465,0,0,0,16.293-2l35.634-8.935a13.262,13.262,0,0,0,7.358-4.783,13.03,13.03,0,0,0,2.838-8.252V181.819a13.458,13.458,0,0,0-13.455-13.455H129.082l-14.3,13.245A11.217,11.217,0,0,0,111,190.229v31.114a10.654,10.654,0,0,0,3.469,8.094,11.7,11.7,0,0,0,8.3,3.259,11.018,11.018,0,0,0,8.3-3.679,12.038,12.038,0,0,0,3.469-8.514V198.638h3.364V220.5a14.459,14.459,0,0,1-5.992,11.983,14.49,14.49,0,0,1,9.093,5.1,14.709,14.709,0,0,1,3.626,9.828,14.941,14.941,0,0,1-2.418,8.2,14.51,14.51,0,0,1-6.412,5.571L103.224,276Z" transform="translate(0 -128)" fill="#25272e"/>
</svg>
