<svg xmlns="http://www.w3.org/2000/svg" width="178.404" height="166.51" viewBox="0 0 178.404 166.51">
  <path id="spock" d="M-52.178,11.894a9.639,9.639,0,0,0-7.387,3.159,10.812,10.812,0,0,0-2.927,7.619,12.385,12.385,0,0,0,.279,2.6l13.938,57.981h-2.416L-61.47,38.468a10.085,10.085,0,0,0-3.67-5.761,10.161,10.161,0,0,0-6.458-2.23,9.68,9.68,0,0,0-7.341,3.159,10.6,10.6,0,0,0-2.973,7.526,13.065,13.065,0,0,0,.372,2.695q.279,1.208,3.624,14.96t6.318,26.2q2.973,12.451,2.973,12.823v21.093L-97.151,97.564a11.473,11.473,0,0,0-7.155-2.416,11.508,11.508,0,0,0-8.316,3.392,11.049,11.049,0,0,0-3.484,8.223,12.347,12.347,0,0,0,5.2,10.221l47.11,35.216a11.34,11.34,0,0,0,7.062,2.416H7.754a8.619,8.619,0,0,0,5.482-1.9,8.758,8.758,0,0,0,3.159-4.878l9.292-37.26a39.119,39.119,0,0,0,.929-8.177,41.778,41.778,0,0,1,.836-7.991L38.231,49.99a10.382,10.382,0,0,0-2.788-9.756,10.123,10.123,0,0,0-7.433-3.066A9.846,9.846,0,0,0,21.6,39.537a10.63,10.63,0,0,0-3.717,5.807l-9.2,37.911H6.267L18.533,32.429a12.386,12.386,0,0,0,.279-2.6,10.285,10.285,0,0,0-2.973-7.433A9.928,9.928,0,0,0,8.4,19.327a10.031,10.031,0,0,0-6.365,2.23,10.085,10.085,0,0,0-3.67,5.761L-15.1,83.255H-26.9l-15.239-63.37a10.085,10.085,0,0,0-3.67-5.761A10.031,10.031,0,0,0-52.178,11.894ZM7.754,166.51H-56.731a23.1,23.1,0,0,1-14.217-4.739l-47.11-35.309a25.176,25.176,0,0,1-7.294-8.734A23.855,23.855,0,0,1-128,106.763a22.506,22.506,0,0,1,6.969-16.632,22.965,22.965,0,0,1,16.725-6.876,20.935,20.935,0,0,1,4.6.511q2.277.511,3.856,1.022a18.016,18.016,0,0,1,3.81,1.9q2.23,1.394,3.252,2.137t3.577,2.741q2.555,2,3.484,2.648L-93.156,46.645a28.784,28.784,0,0,1-.65-5.482A22.213,22.213,0,0,1-88.231,26.11,21.1,21.1,0,0,1-74.107,18.77a21.808,21.808,0,0,1,7.48-13.427A21.4,21.4,0,0,1-52.178,0,21.546,21.546,0,0,1-38.427,4.785a22.023,22.023,0,0,1,7.9,12.312l9.571,39.769,7.712-32.336a22.023,22.023,0,0,1,7.9-12.312A21.546,21.546,0,0,1,8.4,7.433a21.61,21.61,0,0,1,14.17,5.018A21.767,21.767,0,0,1,30.24,25.367a22.04,22.04,0,0,1,14.4,7.248A21.465,21.465,0,0,1,50.4,47.574a21.029,21.029,0,0,1-.65,5.3L38.975,97.193a30.511,30.511,0,0,0-.465,6.226A45.188,45.188,0,0,1,37.3,113.454l-9.385,37.26A20.481,20.481,0,0,1,20.53,162.1,20.137,20.137,0,0,1,7.754,166.51Z" transform="translate(128)" fill="#25272e"/>
</svg>
